<?xml version="1.0" standalone="no"?>
<!DOCTYPE svg PUBLIC "-//W3C//DTD SVG 20010904//EN"
 "http://www.w3.org/TR/2001/REC-SVG-20010904/DTD/svg10.dtd">
<svg version="1.0" xmlns="http://www.w3.org/2000/svg"
 width="1200.000000pt" height="1200.000000pt" viewBox="0 0 1200.000000 1200.000000"
 preserveAspectRatio="xMidYMid meet">
<metadata>
Created by potrace 1.16, written by Peter Selinger 2001-2019
</metadata>
<g transform="translate(0.000000,1200.000000) scale(0.100000,-0.100000)"
fill="#ffffff" stroke="none">
<path d="M6190 6495 l0 -1895 1895 0 1895 0 0 1895 0 1895 -1895 0 -1895 0 0
-1895z"/>
<path d="M3615 8194 c-250 -80 -362 -379 -224 -596 168 -263 533 -255 693 15
117 197 34 453 -180 558 -57 28 -79 33 -153 36 -58 2 -102 -2 -136 -13z"/>
<path d="M3025 7305 c-131 -13 -245 -29 -265 -37 -20 -8 -56 -38 -82 -67 -52
-58 -45 -36 -134 -443 l-47 -218 -99 0 -98 0 0 129 c0 123 -1 131 -24 158
l-24 28 -154 3 c-145 3 -155 2 -197 -20 -31 -17 -52 -38 -68 -68 -22 -42 -23
-51 -23 -309 0 -150 5 -282 10 -303 13 -44 66 -93 117 -107 21 -6 91 -11 156
-11 126 0 177 12 196 48 6 12 11 77 11 151 l0 131 98 0 97 -1 26 -42 c54 -90
168 -133 269 -104 63 18 131 71 150 117 l12 30 164 0 164 0 0 -52 -1 -53 -215
-205 c-159 -152 -221 -218 -239 -254 l-25 -50 0 -395 0 -396 24 -51 c39 -84
122 -134 221 -134 67 0 108 16 160 61 77 68 80 83 83 444 l3 320 147 148 147
147 95 0 95 0 153 -153 152 -152 0 -320 c0 -360 2 -370 75 -434 52 -45 93 -61
160 -61 99 0 182 50 221 134 l24 51 0 396 0 395 -25 50 c-18 36 -83 104 -239
254 l-214 205 -1 53 -1 52 215 0 214 0 15 -28 c41 -79 162 -142 248 -128 73
12 152 67 184 129 14 27 16 27 114 27 l100 0 0 -134 c0 -128 1 -136 24 -163
24 -28 26 -28 158 -31 83 -3 151 1 178 8 54 15 104 63 119 115 14 52 15 517 0
568 -14 51 -63 104 -107 117 -52 14 -298 13 -325 -2 -42 -22 -46 -37 -47 -175
l0 -133 -99 0 c-86 0 -100 2 -105 18 -2 9 -30 136 -61 282 -31 146 -61 278
-68 295 -16 41 -73 103 -117 125 -47 24 -72 27 -437 50 -439 28 -941 26 -1258
-5z m1355 -494 l44 -6 23 -115 c12 -63 22 -123 22 -132 1 -17 -15 -18 -194
-18 l-195 0 0 146 0 146 128 -7 c70 -4 147 -10 172 -14z m-1100 -131 l0 -140
-146 0 -146 0 5 23 c3 12 15 72 28 134 l22 112 41 4 c22 2 76 4 119 5 l77 2 0
-140z"/>
<path d="M1750 4085 c0 -4 32 -108 70 -231 39 -124 70 -227 70 -230 0 -2 22
-4 49 -4 l49 0 52 156 52 156 51 -156 51 -157 49 3 49 3 73 233 72 233 -56 -3
-55 -3 -42 -145 c-24 -80 -43 -147 -44 -150 0 -3 -23 64 -51 148 l-50 152 -44
0 -43 0 -48 -142 c-25 -79 -49 -147 -52 -153 -3 -5 -24 58 -47 140 l-42 150
-56 3 c-32 2 -57 0 -57 -3z"/>
<path d="M2690 3855 l0 -235 160 0 160 0 0 35 0 35 -105 0 -105 0 0 65 0 65
80 0 80 0 0 35 0 35 -80 0 -80 0 0 65 0 65 105 0 105 0 0 35 0 35 -160 0 -160
0 0 -235z"/>
<path d="M3290 3855 l0 -235 50 0 50 0 0 235 0 235 -50 0 -50 0 0 -235z"/>
<path d="M3812 4077 c-88 -32 -142 -113 -142 -214 0 -109 37 -175 122 -217 71
-36 192 -37 258 -3 l45 22 3 98 3 97 -86 0 -85 0 0 -30 c0 -28 3 -30 35 -30
35 0 35 0 35 -45 0 -42 -1 -44 -37 -54 -78 -22 -161 25 -183 103 -41 149 92
260 227 188 36 -20 61 -14 77 17 15 27 14 30 -7 43 -58 38 -193 51 -265 25z"/>
<path d="M4380 3855 l0 -235 55 0 55 0 0 105 0 105 100 0 100 0 0 -105 0 -105
50 0 50 0 0 235 0 235 -50 0 -50 0 0 -100 0 -100 -100 0 -100 0 0 100 0 100
-55 0 -55 0 0 -235z"/>
<path d="M5060 4055 l0 -35 70 0 70 0 0 -200 0 -200 50 0 50 0 0 200 0 200 70
0 70 0 0 35 0 35 -190 0 -190 0 0 -35z"/>
<path d="M6040 4055 l0 -35 70 0 70 0 0 -200 0 -200 50 0 50 0 0 200 0 200 70
0 70 0 0 35 0 35 -190 0 -190 0 0 -35z"/>
<path d="M6690 3855 l0 -235 50 0 50 0 0 95 c0 52 4 95 9 95 27 0 45 -20 97
-101 l56 -89 60 0 60 0 -17 28 c-10 15 -42 62 -71 105 -31 45 -47 77 -39 77
22 0 74 67 81 105 10 54 -14 105 -61 132 -35 20 -54 23 -157 23 l-118 0 0
-235z m183 154 c26 -7 41 -18 48 -36 19 -51 -13 -90 -84 -99 l-47 -7 0 77 c0
85 3 88 83 65z"/>
<path d="M7443 4073 c-3 -10 -44 -113 -90 -230 -46 -116 -83 -215 -83 -218 0
-3 24 -5 53 -3 l52 3 20 58 20 58 88 -3 89 -3 22 -55 22 -55 52 -3 c29 -2 52
-1 52 1 0 2 -27 73 -61 158 -33 85 -74 189 -91 232 l-29 77 -55 0 c-43 0 -56
-4 -61 -17z"/>
<path d="M8075 4061 c-61 -36 -92 -80 -107 -153 -21 -103 16 -204 93 -255 36
-24 55 -29 125 -32 71 -2 91 0 130 19 57 28 64 45 31 77 l-25 26 -37 -23 c-50
-31 -112 -31 -155 0 -81 58 -80 213 2 273 34 25 106 27 142 4 35 -24 58 -21
80 10 19 26 19 26 0 41 -39 29 -85 42 -156 42 -62 0 -80 -4 -123 -29z"/>
<path d="M8640 3855 l0 -235 50 0 50 0 0 105 c0 84 3 105 14 105 19 0 29 -10
110 -118 l70 -92 58 0 c45 0 57 3 52 13 -4 6 -46 63 -92 125 -59 78 -82 116
-75 125 5 6 40 50 78 97 37 47 73 91 78 98 7 9 -4 12 -51 12 l-60 0 -68 -87
c-67 -88 -91 -113 -106 -113 -4 0 -8 45 -8 100 l0 100 -50 0 -50 0 0 -235z"/>
<path d="M9300 3855 l0 -235 155 0 155 0 0 35 0 35 -105 0 -105 0 0 65 0 65
85 0 85 0 0 35 0 35 -85 0 -85 0 0 65 0 65 105 0 105 0 0 35 0 35 -155 0 -155
0 0 -235z"/>
<path d="M9890 3855 l0 -235 50 0 50 0 0 96 c0 93 1 95 22 92 20 -3 60 -54
133 -173 8 -13 23 -16 67 -13 l58 3 -59 91 c-32 50 -64 95 -70 99 -8 4 -1 13
20 24 64 35 88 125 49 189 -30 50 -71 62 -205 62 l-115 0 0 -235z m182 155
c92 -26 67 -123 -34 -136 l-48 -7 0 77 c0 85 3 88 82 66z"/>
</g>
</svg>
